<svg width="43" height="47" viewBox="0 0 43 47" fill="none" xmlns="http://www.w3.org/2000/svg">
<path d="M37.5417 0.583344H7.75C4.98625 0.583344 0.875 2.41439 0.875 7.45834V39.5417C0.875 44.5856 4.98625 46.4167 7.75 46.4167H42.125V41.8333H7.7775C6.71875 41.8058 5.45833 41.3888 5.45833 39.5417C5.45833 39.3102 5.47896 39.104 5.51333 38.9161C5.77 37.5961 6.85167 37.2729 7.7775 37.25H42.125V5.16668C42.125 3.9511 41.6421 2.78531 40.7826 1.92577C39.923 1.06623 38.7572 0.583344 37.5417 0.583344ZM37.5417 21.2083L32.9583 18.9167L28.375 21.2083V5.16668H37.5417V21.2083Z" fill="black"/>
</svg>
