<svg width="34" height="34" viewBox="0 0 34 34" fill="none" xmlns="http://www.w3.org/2000/svg">
<path d="M17.3952 2.36512C17.1416 2.26345 16.8584 2.26345 16.6048 2.36512L3.92275 7.43749L17 12.6671L30.0773 7.43749L17.3952 2.36512ZM31.875 9.00787L18.0625 14.5329V31.3671L31.875 25.8421V9.00999V9.00787ZM15.9375 31.3692V14.5307L2.125 9.00787V25.8442L15.9375 31.3692V31.3692ZM15.8164 0.390993C16.5762 0.0871168 17.4238 0.0871168 18.1836 0.390993L33.3327 6.45149C33.5297 6.53043 33.6985 6.66653 33.8174 6.84226C33.9364 7.01799 34 7.2253 34 7.43749V25.8442C33.9997 26.2689 33.8723 26.6837 33.634 27.0352C33.3958 27.3866 33.0577 27.6587 32.6634 27.8162L17.3952 33.9235C17.1416 34.0252 16.8584 34.0252 16.6048 33.9235L1.33875 27.8162C0.944034 27.659 0.605503 27.3871 0.366864 27.0356C0.128226 26.6841 0.00043845 26.2691 0 25.8442L0 7.43749C4.93849e-05 7.2253 0.0636305 7.01799 0.182552 6.84226C0.301474 6.66653 0.470289 6.53043 0.66725 6.45149L15.8164 0.390993Z" fill="black"/>
</svg>
