<svg width="36" height="36" viewBox="0 0 36 36" fill="none" xmlns="http://www.w3.org/2000/svg">
<path d="M0 5.4C0 3.96783 0.568927 2.59432 1.58162 1.58162C2.59432 0.568927 3.96783 0 5.4 0H30.6C32.0322 0 33.4057 0.568927 34.4184 1.58162C35.4311 2.59432 36 3.96783 36 5.4V30.6C36 32.0322 35.4311 33.4057 34.4184 34.4184C33.4057 35.4311 32.0322 36 30.6 36H5.4C3.96783 36 2.59432 35.4311 1.58162 34.4184C0.568927 33.4057 0 32.0322 0 30.6V5.4ZM28.2744 13.8744C28.6124 13.5364 28.8023 13.078 28.8023 12.6C28.8023 12.122 28.6124 11.6636 28.2744 11.3256C27.9364 10.9876 27.478 10.7977 27 10.7977C26.522 10.7977 26.0636 10.9876 25.7256 11.3256L14.4 22.6548L10.2744 18.5256C9.93641 18.1876 9.47799 17.9977 9 17.9977C8.52201 17.9977 8.06359 18.1876 7.7256 18.5256C7.38761 18.8636 7.19773 19.322 7.19773 19.8C7.19773 20.278 7.38761 20.7364 7.7256 21.0744L13.1256 26.4744C13.2928 26.642 13.4914 26.775 13.7101 26.8658C13.9288 26.9565 14.1632 27.0032 14.4 27.0032C14.6368 27.0032 14.8712 26.9565 15.0899 26.8658C15.3086 26.775 15.5072 26.642 15.6744 26.4744L28.2744 13.8744V13.8744Z" fill="black"/>
</svg>
