<svg width="29" height="28" viewBox="0 0 29 28" fill="none" xmlns="http://www.w3.org/2000/svg">
<path d="M19.2784 10.4727L26.8305 3.00781L26.803 7.24609C26.803 7.41016 26.8671 7.56055 26.9953 7.69727C27.1234 7.83398 27.2699 7.90234 27.4347 7.90234H27.9015C28.0846 7.88411 28.2356 7.82487 28.3546 7.72461C28.4736 7.62435 28.5423 7.49219 28.5606 7.32812V1.01172L28.5469 0.998047L28.5331 0.984375L28.5881 0.65625C28.5881 0.473958 28.5331 0.328125 28.4233 0.21875C28.2951 0.0911458 28.1487 0.0273438 27.9839 0.0273438L27.6544 0.0546875H27.6269L21.3381 0.0273438C21.2465 0.0273438 21.1596 0.0455729 21.0772 0.0820312C20.9948 0.11849 20.9261 0.164062 20.8712 0.21875C20.8163 0.273438 20.7705 0.341797 20.7339 0.423828C20.6973 0.505859 20.679 0.592448 20.679 0.683594V1.12109C20.6973 1.32161 20.7797 1.48112 20.9261 1.59961C21.0726 1.7181 21.2374 1.77734 21.4204 1.77734H25.5672L18.0426 9.24219C17.8595 9.40625 17.768 9.61133 17.768 9.85742C17.768 10.1035 17.8595 10.3086 18.0426 10.4727C18.3538 10.8008 18.7109 10.8464 19.1136 10.6094C19.1686 10.5547 19.2235 10.5091 19.2784 10.4727ZM9.74905 17.5273L2.19696 24.9922L2.22443 20.7539C2.22443 20.5898 2.16035 20.4395 2.03219 20.3027C1.90403 20.166 1.75757 20.0977 1.5928 20.0977H1.09848C1.02525 20.1159 0.947438 20.1387 0.865051 20.166C0.782665 20.1934 0.709433 20.2298 0.645354 20.2754C0.581276 20.321 0.535506 20.3802 0.508044 20.4531C0.480582 20.526 0.457696 20.599 0.439388 20.6719V26.9883L0.453119 27.002L0.466851 27.0156L0.411926 27.3438C0.411926 27.4349 0.425657 27.5169 0.453119 27.5898C0.480582 27.6628 0.521775 27.7266 0.576699 27.7812C0.704856 27.9089 0.85132 27.9727 1.01609 27.9727L1.34564 27.9453H1.3731L7.68939 27.9727C7.87247 27.9727 8.02809 27.9089 8.15624 27.7812C8.2844 27.6536 8.34848 27.4987 8.34848 27.3164V26.8789C8.33017 26.6784 8.24778 26.5189 8.10132 26.4004C7.95486 26.2819 7.79008 26.2227 7.607 26.2227H3.46022L10.9848 18.7578C11.0764 18.6667 11.145 18.571 11.1908 18.4707C11.2366 18.3704 11.2595 18.2611 11.2595 18.1426C11.2595 18.0241 11.2366 17.9102 11.1908 17.8008C11.145 17.6914 11.0764 17.6003 10.9848 17.5273C10.875 17.418 10.7468 17.3405 10.6004 17.2949C10.4539 17.2493 10.3029 17.2493 10.1472 17.2949C9.99163 17.3405 9.8589 17.418 9.74905 17.5273ZM28.5606 26.9883V20.6719C28.5423 20.5078 28.4736 20.3757 28.3546 20.2754C28.2356 20.1751 28.0846 20.1159 27.9015 20.0977H27.4347C27.2699 20.0977 27.1234 20.1615 26.9953 20.2891C26.8671 20.4167 26.803 20.5716 26.803 20.7539L26.8305 24.9922L19.2784 17.5273C19.1686 17.418 19.0358 17.3405 18.8802 17.2949C18.7246 17.2493 18.5735 17.2493 18.4271 17.2949C18.2806 17.3405 18.1525 17.418 18.0426 17.5273C17.8595 17.6914 17.768 17.8965 17.768 18.1426C17.768 18.3887 17.8595 18.5938 18.0426 18.7578L25.5672 26.2227H21.4204C21.2923 26.2227 21.1779 26.2454 21.0772 26.291C20.9765 26.3366 20.8895 26.4141 20.8163 26.5234C20.743 26.6328 20.6973 26.7513 20.679 26.8789V27.3164C20.679 27.444 20.711 27.5579 20.7751 27.6582C20.8392 27.7585 20.917 27.8359 21.0085 27.8906C21.1001 27.9453 21.2099 27.9727 21.3381 27.9727L27.6269 27.9453H27.6544L27.9839 27.9727C28.1487 27.9727 28.2951 27.9089 28.4233 27.7812C28.5331 27.6719 28.5881 27.526 28.5881 27.3438L28.5331 27.0156H28.5606V26.9883ZM3.46022 1.77734H7.607C7.79008 1.77734 7.95486 1.7181 8.10132 1.59961C8.24778 1.48112 8.33017 1.32161 8.34848 1.12109V0.683594C8.34848 0.501302 8.2844 0.346354 8.15624 0.21875C8.02809 0.0911458 7.87247 0.0273438 7.68939 0.0273438L1.3731 0.0546875H1.34564L1.01609 0.0273438C0.85132 0.0273438 0.704856 0.0911458 0.576699 0.21875C0.521775 0.273438 0.480582 0.33724 0.453119 0.410156C0.425657 0.483073 0.411926 0.565104 0.411926 0.65625L0.466851 0.984375H0.453119L0.439388 1.01172V7.32812C0.457696 7.49219 0.526352 7.62435 0.645354 7.72461C0.764357 7.82487 0.915398 7.88411 1.09848 7.90234H1.5928C1.70265 7.90234 1.80792 7.87044 1.90861 7.80664C2.00931 7.74284 2.08712 7.66081 2.14204 7.56055C2.19696 7.46029 2.22443 7.35547 2.22443 7.24609L2.19696 3.00781L9.74905 10.4727C9.91382 10.6549 10.1198 10.7461 10.3669 10.7461C10.6141 10.7461 10.8246 10.6595 10.9986 10.4863C11.1725 10.3132 11.2595 10.1035 11.2595 9.85742C11.2595 9.61133 11.1679 9.40625 10.9848 9.24219L3.46022 1.77734Z" fill="black"/>
</svg>
