<svg width="57" height="59" viewBox="0 0 57 59" fill="none" xmlns="http://www.w3.org/2000/svg">
<path fill-rule="evenodd" clip-rule="evenodd" d="M28.5322 22.3809C27.5917 22.3598 26.6565 22.5267 25.7814 22.872C24.9064 23.2173 24.1091 23.7339 23.4365 24.3916C22.7639 25.0492 22.2295 25.8347 21.8646 26.7017C21.4997 27.5688 21.3118 28.5 21.3118 29.4407C21.3118 30.3814 21.4997 31.3127 21.8646 32.1797C22.2295 33.0468 22.7639 33.8322 23.4365 34.4899C24.1091 35.1475 24.9064 35.6642 25.7814 36.0094C26.6565 36.3547 27.5917 36.5217 28.5322 36.5005C30.4054 36.5015 32.2022 35.7585 33.5278 34.435C34.8533 33.1114 35.599 31.3157 35.6009 29.4425C35.5981 27.5693 34.8522 25.7737 33.527 24.4498C32.2017 23.1259 30.4054 22.3818 28.5322 22.3809V22.3809Z" fill="black"/>
<path fill-rule="evenodd" clip-rule="evenodd" d="M57 29.296C57 13.4297 44.2377 0.871033 28.5 0.871033C12.7623 0.871033 0 13.4297 0 29.296C0 45.1623 12.7587 58.021 28.5 58.021C44.802 58.021 57 44.8408 57 29.296ZM43.7948 11.1973L46.8987 14.3013L41.4766 19.7234L38.3727 16.6194L43.7948 11.1973ZM12.9766 47.9948L9.87624 44.8908L15.2983 39.4687L18.3987 42.5727L12.9766 47.9948V47.9948ZM17.4486 29.3925C17.4486 23.1953 22.4314 18.1696 28.575 18.1696C34.7151 18.1696 39.7014 23.1917 39.7014 29.3925C39.7014 35.5825 34.7151 40.6082 28.575 40.6082C22.4278 40.6082 17.4486 35.5861 17.4486 29.3925Z" fill="black"/>
</svg>
