<?xml version="1.0" encoding="utf-8"?>
<!-- Generator: Adobe Illustrator 25.2.3, SVG Export Plug-In . SVG Version: 6.00 Build 0)  -->
<svg version="1.1" id="Layer_1" xmlns="http://www.w3.org/2000/svg" xmlns:xlink="http://www.w3.org/1999/xlink" x="0px" y="0px"
	 viewBox="0 0 18.9 12.8" style="enable-background:new 0 0 18.9 12.8;" xml:space="preserve">
<style type="text/css">
	.st0{fill:#FFFFFF;}
</style>
<path class="st0" d="M8.7,12.4c0.1,0.1,0.2,0.2,0.3,0.3c0.1,0.1,0.3,0.1,0.4,0.1c0.2,0,0.3,0,0.4-0.1c0.1-0.1,0.3-0.2,0.3-0.3
	l8.5-11.1c0.1-0.1,0.2-0.3,0.2-0.4c0-0.2,0-0.3-0.1-0.4c-0.1-0.1-0.2-0.3-0.3-0.3C18.3,0,18.1,0,18,0h-17C0.8,0,0.6,0,0.5,0.1
	C0.3,0.2,0.2,0.3,0.1,0.5C0,0.6,0,0.8,0,0.9s0.1,0.3,0.2,0.4L8.7,12.4z"/>
</svg>
