<svg width="53" height="46" viewBox="0 0 53 46" fill="none" xmlns="http://www.w3.org/2000/svg">
<path d="M48.1818 15.2016C45.5318 15.2016 43.3636 17.4818 43.3636 20.2688V30.4031H9.63636V20.2688C9.63636 17.4818 7.46818 15.2016 4.81818 15.2016C2.16818 15.2016 0 17.4818 0 20.2688V32.9367C0 37.1171 3.25227 40.5375 7.22727 40.5375V43.0711C7.22727 44.4646 8.31136 45.6047 9.63636 45.6047C10.9614 45.6047 12.0455 44.4646 12.0455 43.0711V40.5375H40.9545V43.0711C40.9545 44.4646 42.0386 45.6047 43.3636 45.6047C44.6886 45.6047 45.7727 44.4646 45.7727 43.0711V40.5375C49.7477 40.5375 53 37.1171 53 32.9367V20.2688C53 17.4818 50.8318 15.2016 48.1818 15.2016Z" fill="black"/>
<path d="M14.4545 20.2687V25.3359H38.5454V20.2687C38.5454 15.5563 41.6291 11.6292 45.7727 10.4891V7.60078C45.7727 3.42035 42.5204 0 38.5454 0H14.4545C10.4795 0 7.22726 3.42035 7.22726 7.60078V10.4891C11.3709 11.6292 14.4545 15.5563 14.4545 20.2687Z" fill="black"/>
</svg>
