<svg width="24" height="28" viewBox="0 0 24 28" fill="none" xmlns="http://www.w3.org/2000/svg">
<path d="M0.400024 2.8V25.2C0.400024 26.7442 1.7231 28 3.35002 28H21.05C22.6769 28 24 26.7442 24 25.2V8.4C24.0002 8.21613 23.9621 8.03403 23.888 7.86417C23.8138 7.69431 23.705 7.54003 23.5678 7.4102L16.1928 0.410201C16.0561 0.279942 15.8936 0.176639 15.7146 0.10624C15.5356 0.0358402 15.3437 -0.000265229 15.15 1.46674e-06H3.35002C1.7231 1.46674e-06 0.400024 1.2558 0.400024 2.8ZM21.05 8.9796L21.0515 25.2H3.35002V2.8H14.5394L21.05 8.9796Z" fill="black"/>
<path d="M6.30002 5.60001H9.25002V11.2H6.30002V5.60001ZM12.2 5.60001H15.15V11.2H12.2V5.60001Z" fill="black"/>
</svg>
