<svg width="32" height="32" viewBox="0 0 32 32" fill="none" xmlns="http://www.w3.org/2000/svg">
<path d="M20.5012 29.9393C20.1914 30.2492 19.8235 30.4951 19.4187 30.6628C19.0138 30.8305 18.5799 30.9169 18.1416 30.9169C17.7034 30.9169 17.2695 30.8305 16.8646 30.6628C16.4598 30.4951 16.0919 30.2492 15.7821 29.9393L2.60242 16.7595C1.97673 16.134 1.62515 15.2855 1.625 14.4008V4.95963C1.625 3.12042 3.12042 1.625 4.96117 1.625H14.4008C15.2842 1.625 16.1336 1.9765 16.7595 2.60242L29.9393 15.7821C30.2492 16.0919 30.4951 16.4598 30.6628 16.8646C30.8305 17.2695 30.9169 17.7034 30.9169 18.1416C30.9169 18.5799 30.8305 19.0138 30.6628 19.4187C30.4951 19.8235 30.2492 20.1914 29.9393 20.5012L20.5012 29.9393Z" stroke="black" stroke-width="2" stroke-linecap="round" stroke-linejoin="round"/>
<path d="M7.02081 7.02084L7.79165 7.79168" stroke="black" stroke-width="2" stroke-linecap="round"/>
</svg>
