<svg width="19" height="32" viewBox="0 0 19 32" fill="none" xmlns="http://www.w3.org/2000/svg">
<path d="M18.3125 21.3616C18.3125 15.8812 13.8238 15.2566 10.2174 14.7555C6.28673 14.2092 4.06255 13.7342 4.06255 10.3499C4.06255 7.50937 7.03961 6.5 9.58917 6.5C10.8597 6.45895 12.1219 6.72051 13.2715 7.26311C14.4211 7.80571 15.4252 8.6138 16.2012 9.62075L18.0489 8.12925C17.218 7.0607 16.184 6.16692 15.0065 5.4993C13.829 4.83167 12.5311 4.40337 11.1875 4.239V0.5625H8.81255V4.15112C4.51973 4.41237 1.68755 6.83487 1.68755 10.3499C1.68755 15.9667 6.23567 16.5997 9.88961 17.1067C13.7525 17.6447 15.9375 18.1066 15.9375 21.3616C15.9375 24.9621 12.2171 25.5 10 25.5C5.92692 25.5 4.20742 24.3552 2.61142 22.3792L0.763672 23.8708C1.70507 25.1113 2.92268 26.1154 4.31984 26.8032C5.717 27.4911 7.25527 27.8438 8.81255 27.8334V31.4375H11.1875V27.8216C15.6122 27.4606 18.3125 25.0582 18.3125 21.3616V21.3616Z" fill="black"/>
</svg>
