<svg width="29" height="26" viewBox="0 0 29 26" fill="none" xmlns="http://www.w3.org/2000/svg">
<path d="M14.5 0C16.0383 0 17.5135 0.608728 18.6012 1.69227C19.6889 2.77582 20.3 4.24542 20.3 5.77778C20.3 6.83222 20.0245 7.81444 19.517 8.66667H23.2C24.5775 8.66667 25.7375 9.63444 26.0275 10.92C28.942 22.49 29 22.7933 29 23.1111C29 23.8773 28.6945 24.6121 28.1506 25.1539C27.6068 25.6956 26.8691 26 26.1 26H2.9C2.13087 26 1.39325 25.6956 0.84939 25.1539C0.305535 24.6121 0 23.8773 0 23.1111C0 22.7933 0.0580003 22.49 2.9725 10.92C3.2625 9.63444 4.4225 8.66667 5.8 8.66667H9.483C8.96467 7.79191 8.69407 6.79354 8.7 5.77778C8.7 4.24542 9.31107 2.77582 10.3988 1.69227C11.4865 0.608728 12.9617 0 14.5 0V0ZM14.5 2.88889C13.7309 2.88889 12.9932 3.19325 12.4494 3.73502C11.9055 4.2768 11.6 5.0116 11.6 5.77778C11.6 6.54396 11.9055 7.27876 12.4494 7.82053C12.9932 8.3623 13.7309 8.66667 14.5 8.66667C15.2691 8.66667 16.0068 8.3623 16.5506 7.82053C17.0945 7.27876 17.4 6.54396 17.4 5.77778C17.4 5.0116 17.0945 4.2768 16.5506 3.73502C16.0068 3.19325 15.2691 2.88889 14.5 2.88889V2.88889ZM5.8 11.5556V23.1111H8.7V19.5L10.15 20.9444V23.1111H13.05V20.2222L10.15 17.3333L13.05 14.4444V11.5556H10.15V13.7222L8.7 15.1667V11.5556H5.8ZM18.85 11.5556C17.2405 11.5556 15.95 12.8411 15.95 14.4444V20.2222C15.95 21.8256 17.2405 23.1111 18.85 23.1111H23.2V15.8889H20.3V20.2222H18.85V14.4444H23.2V11.5556H18.85Z" fill="black"/>
</svg>
